<mxfile host="app.diagrams.net" agent="Mozilla/5.0 (X11; Linux x86_64) AppleWebKit/537.36 (KHTML, like Gecko) Chrome/140.0.0.0 Safari/537.36" version="28.1.2">
  <diagram name="Page-1" id="QtA1ayilwM-M5RRrLMvZ">
    <mxGraphModel dx="1615" dy="793" grid="1" gridSize="10" guides="1" tooltips="1" connect="1" arrows="1" fold="1" page="1" pageScale="1" pageWidth="850" pageHeight="1400" math="0" shadow="0">
      <root>
        <mxCell id="0" />
        <mxCell id="1" parent="0" />
        <mxCell id="luqwtIF8umNXLDS7QRCT-1" value="" style="html=1;verticalLabelPosition=bottom;align=center;labelBackgroundColor=#ffffff;verticalAlign=top;strokeWidth=2;strokeColor=#0080F0;shadow=0;dashed=0;shape=mxgraph.ios7.icons.microphone;" vertex="1" parent="1">
          <mxGeometry x="250" y="250" width="28" height="70" as="geometry" />
        </mxCell>
        <mxCell id="luqwtIF8umNXLDS7QRCT-3" value="" style="shape=image;html=1;verticalAlign=top;verticalLabelPosition=bottom;labelBackgroundColor=#ffffff;imageAspect=0;aspect=fixed;image=https://icons.diagrams.net/icon-cache1/Business___Startup-2288/46-1338.svg" vertex="1" parent="1">
          <mxGeometry x="80" y="230" width="110" height="110" as="geometry" />
        </mxCell>
        <mxCell id="luqwtIF8umNXLDS7QRCT-6" value="" style="sketch=0;points=[[0,0,0],[0.25,0,0],[0.5,0,0],[0.75,0,0],[1,0,0],[0,1,0],[0.25,1,0],[0.5,1,0],[0.75,1,0],[1,1,0],[0,0.25,0],[0,0.5,0],[0,0.75,0],[1,0.25,0],[1,0.5,0],[1,0.75,0]];outlineConnect=0;fontColor=#232F3E;fillColor=#01A88D;strokeColor=#ffffff;dashed=0;verticalLabelPosition=bottom;verticalAlign=top;align=center;html=1;fontSize=12;fontStyle=0;aspect=fixed;shape=mxgraph.aws4.resourceIcon;resIcon=mxgraph.aws4.machine_learning;" vertex="1" parent="1">
          <mxGeometry x="370" y="260" width="78" height="78" as="geometry" />
        </mxCell>
        <mxCell id="luqwtIF8umNXLDS7QRCT-7" value="&lt;font style=&quot;font-size: 18px;&quot;&gt;&lt;b&gt;&amp;nbsp;... .....&amp;nbsp; &amp;nbsp;... .. ...&lt;/b&gt;&lt;/font&gt;&lt;div&gt;&lt;font size=&quot;3&quot;&gt;&lt;b&gt;&amp;nbsp;..... . ....&amp;nbsp;&lt;/b&gt;&lt;/font&gt;&lt;/div&gt;" style="text;html=1;align=left;verticalAlign=middle;whiteSpace=wrap;rounded=0;" vertex="1" parent="1">
          <mxGeometry x="523" y="277" width="65" height="30" as="geometry" />
        </mxCell>
        <mxCell id="luqwtIF8umNXLDS7QRCT-8" value="" style="sketch=0;points=[[0,0,0],[0.25,0,0],[0.5,0,0],[0.75,0,0],[1,0,0],[0,1,0],[0.25,1,0],[0.5,1,0],[0.75,1,0],[1,1,0],[0,0.25,0],[0,0.5,0],[0,0.75,0],[1,0.25,0],[1,0.5,0],[1,0.75,0]];outlineConnect=0;fontColor=#232F3E;fillColor=#01A88D;strokeColor=#ffffff;dashed=0;verticalLabelPosition=bottom;verticalAlign=top;align=center;html=1;fontSize=12;fontStyle=0;aspect=fixed;shape=mxgraph.aws4.resourceIcon;resIcon=mxgraph.aws4.machine_learning;" vertex="1" parent="1">
          <mxGeometry x="660" y="260" width="78" height="78" as="geometry" />
        </mxCell>
        <mxCell id="luqwtIF8umNXLDS7QRCT-9" value="" style="shape=image;html=1;verticalAlign=top;verticalLabelPosition=bottom;labelBackgroundColor=#ffffff;imageAspect=0;aspect=fixed;image=https://icons.diagrams.net/icon-cache1/Evil_Icons_User_Interface-2617/picture-609.svg" vertex="1" parent="1">
          <mxGeometry x="80" y="140" width="74" height="74" as="geometry" />
        </mxCell>
        <mxCell id="luqwtIF8umNXLDS7QRCT-10" value="" style="shape=image;html=1;verticalAlign=top;verticalLabelPosition=bottom;labelBackgroundColor=#ffffff;imageAspect=0;aspect=fixed;image=https://icons.diagrams.net/icon-cache1/Essentials-2481/006_-_Image-1331.svg" vertex="1" parent="1">
          <mxGeometry x="662" y="410" width="74" height="74" as="geometry" />
        </mxCell>
        <mxCell id="luqwtIF8umNXLDS7QRCT-11" value="" style="endArrow=classic;html=1;rounded=0;exitX=1;exitY=0.25;exitDx=0;exitDy=0;entryX=0.003;entryY=0.651;entryDx=0;entryDy=0;entryPerimeter=0;" edge="1" parent="1" source="luqwtIF8umNXLDS7QRCT-3" target="luqwtIF8umNXLDS7QRCT-1">
          <mxGeometry width="50" height="50" relative="1" as="geometry">
            <mxPoint x="400" y="430" as="sourcePoint" />
            <mxPoint x="450" y="380" as="targetPoint" />
            <Array as="points">
              <mxPoint x="220" y="296" />
            </Array>
          </mxGeometry>
        </mxCell>
        <mxCell id="luqwtIF8umNXLDS7QRCT-12" value="" style="endArrow=classic;html=1;rounded=0;exitX=1.007;exitY=0.687;exitDx=0;exitDy=0;exitPerimeter=0;entryX=0;entryY=0.5;entryDx=0;entryDy=0;entryPerimeter=0;" edge="1" parent="1" source="luqwtIF8umNXLDS7QRCT-1" target="luqwtIF8umNXLDS7QRCT-6">
          <mxGeometry width="50" height="50" relative="1" as="geometry">
            <mxPoint x="400" y="430" as="sourcePoint" />
            <mxPoint x="360" y="298" as="targetPoint" />
          </mxGeometry>
        </mxCell>
        <mxCell id="luqwtIF8umNXLDS7QRCT-13" value="" style="endArrow=classic;html=1;rounded=0;entryX=0;entryY=0.75;entryDx=0;entryDy=0;exitX=1;exitY=0.5;exitDx=0;exitDy=0;exitPerimeter=0;" edge="1" parent="1" source="luqwtIF8umNXLDS7QRCT-6" target="luqwtIF8umNXLDS7QRCT-7">
          <mxGeometry width="50" height="50" relative="1" as="geometry">
            <mxPoint x="400" y="430" as="sourcePoint" />
            <mxPoint x="450" y="380" as="targetPoint" />
          </mxGeometry>
        </mxCell>
        <mxCell id="luqwtIF8umNXLDS7QRCT-14" value="" style="endArrow=classic;html=1;rounded=0;exitX=1;exitY=0.75;exitDx=0;exitDy=0;entryX=0;entryY=0.5;entryDx=0;entryDy=0;entryPerimeter=0;" edge="1" parent="1" source="luqwtIF8umNXLDS7QRCT-7" target="luqwtIF8umNXLDS7QRCT-8">
          <mxGeometry width="50" height="50" relative="1" as="geometry">
            <mxPoint x="400" y="430" as="sourcePoint" />
            <mxPoint x="650" y="292" as="targetPoint" />
          </mxGeometry>
        </mxCell>
        <mxCell id="luqwtIF8umNXLDS7QRCT-15" value="" style="endArrow=classic;html=1;rounded=0;exitX=0.5;exitY=1;exitDx=0;exitDy=0;exitPerimeter=0;" edge="1" parent="1" source="luqwtIF8umNXLDS7QRCT-8" target="luqwtIF8umNXLDS7QRCT-10">
          <mxGeometry width="50" height="50" relative="1" as="geometry">
            <mxPoint x="400" y="430" as="sourcePoint" />
            <mxPoint x="450" y="380" as="targetPoint" />
          </mxGeometry>
        </mxCell>
        <mxCell id="luqwtIF8umNXLDS7QRCT-16" value="" style="endArrow=classic;html=1;rounded=0;exitX=1;exitY=0.5;exitDx=0;exitDy=0;entryX=0.5;entryY=0;entryDx=0;entryDy=0;entryPerimeter=0;" edge="1" parent="1" source="luqwtIF8umNXLDS7QRCT-9" target="luqwtIF8umNXLDS7QRCT-8">
          <mxGeometry width="50" height="50" relative="1" as="geometry">
            <mxPoint x="400" y="430" as="sourcePoint" />
            <mxPoint x="450" y="380" as="targetPoint" />
            <Array as="points">
              <mxPoint x="700" y="180" />
            </Array>
          </mxGeometry>
        </mxCell>
        <mxCell id="luqwtIF8umNXLDS7QRCT-18" value="Gemini 2.5 Flash" style="text;html=1;align=center;verticalAlign=middle;whiteSpace=wrap;rounded=0;" vertex="1" parent="1">
          <mxGeometry x="364" y="350" width="90" height="30" as="geometry" />
        </mxCell>
        <mxCell id="luqwtIF8umNXLDS7QRCT-19" value="Nano Banana" style="text;html=1;align=center;verticalAlign=middle;whiteSpace=wrap;rounded=0;" vertex="1" parent="1">
          <mxGeometry x="740" y="284" width="60" height="30" as="geometry" />
        </mxCell>
        <mxCell id="luqwtIF8umNXLDS7QRCT-20" value="Transcribed Speech" style="text;html=1;align=center;verticalAlign=middle;whiteSpace=wrap;rounded=0;" vertex="1" parent="1">
          <mxGeometry x="528" y="330" width="60" height="30" as="geometry" />
        </mxCell>
        <mxCell id="luqwtIF8umNXLDS7QRCT-22" value="Edited Image" style="text;html=1;align=center;verticalAlign=middle;whiteSpace=wrap;rounded=0;" vertex="1" parent="1">
          <mxGeometry x="669" y="500" width="60" height="30" as="geometry" />
        </mxCell>
      </root>
    </mxGraphModel>
  </diagram>
</mxfile>
